<?xml version="1.0" standalone="no"?>
<!DOCTYPE svg PUBLIC "-//W3C//DTD SVG 20010904//EN"
 "http://www.w3.org/TR/2001/REC-SVG-20010904/DTD/svg10.dtd">
<svg version="1.0" xmlns="http://www.w3.org/2000/svg"
 width="1024.000000pt" height="1024.000000pt" viewBox="0 0 1024.000000 1024.000000"
 preserveAspectRatio="xMidYMid meet">
<metadata>
Created by potrace 1.16, written by Peter Selinger 2001-2019
</metadata>
<g transform="translate(0.000000,1024.000000) scale(0.100000,-0.100000)"
fill="#000000" stroke="none">
<path d="M5002 9217 c-14 -15 -22 -36 -22 -58 0 -70 77 -103 134 -58 33 26 37
88 6 119 -29 29 -90 27 -118 -3z"/>
<path d="M5270 9220 c-27 -27 -27 -83 2 -110 42 -39 102 -14 114 47 12 63 -71
108 -116 63z"/>
<path d="M4755 9205 c-16 -15 -25 -36 -25 -55 0 -39 39 -80 75 -80 16 0 39 12
57 30 25 26 29 36 24 63 -13 65 -85 89 -131 42z"/>
<path d="M5512 9207 c-12 -13 -22 -36 -22 -53 0 -87 105 -111 145 -33 41 78
-63 150 -123 86z"/>
<path d="M4534 9200 c-30 -12 -54 -49 -54 -81 0 -28 48 -79 75 -79 76 0 119
101 63 147 -20 17 -60 23 -84 13z"/>
<path d="M6269 9127 c-42 -32 -50 -90 -18 -131 28 -36 89 -37 124 -1 34 33 34
93 2 123 -26 25 -82 29 -108 9z"/>
<path d="M5272 8571 c1 -166 1 -301 -2 -301 -3 0 -73 91 -155 202 -83 112
-179 242 -215 290 -76 103 -52 97 -294 71 l-158 -16 6 -76 c7 -79 17 -183 66
-691 16 -168 34 -363 41 -435 6 -71 15 -134 19 -138 8 -9 330 21 341 32 6 5
-11 343 -25 510 l-5 64 20 -19 c12 -11 78 -98 147 -194 69 -96 152 -212 184
-256 32 -45 64 -87 71 -93 13 -10 294 -37 303 -29 8 9 36 1350 28 1358 -5 4
-92 11 -192 15 l-184 7 4 -301z"/>
<path d="M3072 8800 c-29 -27 -29 -83 -2 -110 28 -28 81 -26 108 3 65 69 -37
171 -106 107z"/>
<path d="M6037 8738 c-17 -60 -103 -406 -176 -708 -102 -426 -135 -569 -130
-574 5 -5 371 -87 374 -84 1 2 30 104 63 227 33 123 63 226 66 229 12 12 336
-87 336 -102 0 -6 -34 -110 -75 -230 -42 -121 -74 -223 -73 -228 2 -5 62 -32
133 -62 72 -29 149 -63 173 -75 24 -12 48 -21 54 -19 13 5 16 14 179 463 72
198 166 456 210 574 43 118 79 218 79 222 0 5 -26 22 -57 37 -75 38 -308 132
-325 132 -9 0 -36 -62 -71 -162 -32 -90 -67 -186 -78 -215 l-21 -52 -46 15
c-26 8 -103 31 -172 51 -69 19 -129 39 -133 43 -5 4 20 109 54 234 53 191 61
229 48 236 -11 7 -244 66 -376 95 -19 4 -23 -2 -36 -47z"/>
<path d="M7238 8775 c-34 -19 -53 -72 -38 -109 11 -30 60 -55 95 -48 67 12 93
104 41 148 -31 27 -59 30 -98 9z"/>
<path d="M3575 8609 c-150 -23 -271 -84 -381 -194 -124 -123 -190 -268 -201
-444 -20 -331 189 -624 507 -708 98 -26 255 -23 350 6 238 73 394 224 472 457
20 59 23 89 23 204 -1 121 -4 143 -29 215 -37 107 -73 168 -148 250 -153 166
-378 248 -593 214z m295 -211 c62 -30 101 -58 146 -103 62 -63 132 -183 119
-204 -13 -22 -32 -10 -53 35 -30 61 -93 142 -138 178 -49 39 -138 83 -196 96
-46 11 -63 32 -35 43 23 10 72 -4 157 -45z m-134 -233 c180 -54 238 -289 103
-423 -44 -45 -77 -60 -141 -68 -103 -12 -192 35 -243 128 -38 69 -41 170 -7
235 31 59 84 108 140 126 60 20 87 21 148 2z m-375 -505 c64 -79 186 -140 282
-140 31 0 38 -3 35 -17 -5 -25 -71 -28 -143 -8 -71 21 -171 89 -209 142 -26
38 -28 63 -6 63 5 0 23 -18 41 -40z"/>
<path d="M2430 8049 c-259 -30 -493 -210 -569 -436 -67 -201 23 -426 203 -509
123 -56 259 -54 433 6 47 17 99 30 115 30 42 0 84 -25 95 -57 31 -91 -75 -176
-222 -177 -57 -1 -80 4 -125 26 -30 15 -55 26 -55 25 -1 -1 -12 -42 -25 -92
-12 -49 -38 -132 -56 -183 l-33 -94 45 -19 c177 -79 432 -58 609 49 86 52 203
174 242 252 104 207 74 423 -78 571 -83 82 -142 103 -284 104 -97 0 -122 -4
-210 -33 -117 -38 -172 -41 -203 -12 -70 65 35 176 183 195 32 4 74 1 118 -9
38 -9 70 -16 71 -16 2 0 7 40 10 89 4 49 15 128 25 175 l17 86 -30 9 c-71 23
-183 31 -276 20z m-185 -710 c61 -22 120 -23 200 -4 77 18 105 19 105 1 0 -16
-15 -23 -90 -42 -104 -25 -213 -14 -272 28 -32 22 -39 55 -10 43 9 -5 40 -16
67 -26z"/>
<path d="M7624 7940 c-193 -50 -361 -187 -447 -365 -57 -116 -71 -182 -71
-325 0 -108 4 -136 27 -205 38 -113 90 -198 177 -285 84 -84 195 -147 310
-177 88 -22 255 -22 335 1 204 60 366 195 455 381 191 398 -24 867 -448 976
-98 25 -241 25 -338 -1z m305 -453 c22 -15 55 -46 71 -69 100 -137 39 -339
-119 -399 -168 -63 -335 56 -336 241 0 55 5 74 31 120 56 99 133 142 245 137
52 -2 75 -8 108 -30z"/>
<path d="M5501 7366 c-18 -21 -135 -590 -127 -613 8 -21 32 -15 44 11 6 13 16
53 22 88 6 35 24 122 40 193 35 153 60 283 60 306 0 22 -26 31 -39 15z"/>
<path d="M5260 7306 c-113 -31 -185 -88 -232 -183 -28 -58 -33 -77 -33 -143 1
-125 43 -200 296 -530 172 -224 230 -320 268 -444 26 -85 27 -161 1 -228 -11
-28 -19 -53 -17 -54 1 -1 70 -11 152 -23 472 -67 705 -145 782 -262 29 -44 33
-98 9 -133 -81 -125 -419 -251 -851 -318 -170 -26 -577 -36 -778 -18 -341 29
-651 101 -842 195 -242 119 -276 235 -102 350 136 90 390 155 759 193 l158 17
-30 45 c-51 76 -73 146 -74 235 -1 66 3 87 21 117 l22 37 -27 -11 c-96 -41
-132 -137 -98 -266 17 -61 27 -55 -124 -72 -161 -18 -422 -77 -531 -120 -144
-57 -265 -146 -295 -217 -19 -44 -18 -383 0 -523 42 -310 139 -596 288 -853
22 -38 38 -70 36 -71 -1 -1 -82 -41 -178 -89 -96 -47 -210 -109 -253 -138
-103 -69 -216 -175 -266 -251 -24 -35 -43 -55 -45 -47 -3 8 -12 41 -20 74 -32
126 -180 571 -195 588 -13 14 -27 -14 -70 -137 -53 -151 -88 -277 -110 -391
l-18 -90 -101 202 c-56 112 -102 206 -102 210 0 5 28 38 63 73 64 68 117 154
143 237 24 76 29 262 10 368 -20 105 -104 426 -116 438 -9 10 -178 -264 -227
-370 -20 -43 -46 -111 -58 -151 l-22 -73 -47 121 c-63 161 -98 261 -94 264 61
41 187 149 220 188 122 145 175 258 225 478 34 149 43 387 19 498 -19 93 -70
197 -112 229 -43 32 -105 33 -165 2 -64 -32 -165 -141 -231 -248 l-57 -92 -20
46 c-66 149 -224 333 -446 522 -107 91 -292 233 -303 233 -11 0 -10 -8 19
-280 47 -439 88 -580 226 -765 65 -87 186 -207 275 -273 51 -37 56 -45 62 -89
6 -46 79 -267 159 -483 85 -229 227 -599 247 -645 l21 -49 -22 19 c-35 31
-231 233 -246 255 -35 50 -141 84 -408 130 -159 27 -225 33 -225 21 0 -18 195
-254 271 -327 100 -97 162 -143 255 -191 111 -57 233 -98 357 -119 l106 -18
80 -166 c99 -205 256 -547 266 -580 6 -21 -3 -15 -51 29 -97 90 -181 179 -284
301 -111 132 -250 271 -330 331 -173 130 -268 152 -699 163 l-194 5 44 -45
c151 -155 383 -341 530 -423 l74 -42 -115 6 -115 6 85 -81 c102 -97 317 -264
440 -342 195 -122 398 -178 656 -178 l90 0 59 -72 c78 -96 270 -309 381 -426
94 -97 124 -112 156 -74 40 45 36 54 -90 189 -65 71 -126 134 -135 142 -15 12
-17 38 -17 193 l0 180 43 -34 c236 -194 647 -333 1192 -403 260 -34 749 -36
1050 -5 504 51 954 194 1201 381 36 27 66 49 68 49 2 0 6 -75 8 -167 l5 -168
-129 -133 c-150 -156 -160 -171 -131 -210 25 -34 49 -39 88 -17 36 21 286 296
473 523 l44 52 99 0 c237 0 396 36 581 132 153 79 482 327 588 443 l25 28
-125 -7 -125 -7 92 47 c51 26 141 83 200 128 110 82 363 319 352 330 -11 12
-532 -14 -603 -29 -97 -21 -182 -63 -289 -144 -104 -78 -165 -140 -327 -326
-100 -115 -350 -366 -350 -351 0 6 30 74 83 186 19 41 83 179 141 305 58 127
111 241 118 254 11 21 29 27 129 47 140 28 267 72 373 127 91 49 239 168 312
253 129 150 209 253 201 260 -13 13 -357 -46 -509 -87 l-77 -21 -158 -163
c-87 -90 -159 -162 -161 -160 -2 2 4 18 14 36 17 34 60 143 156 399 162 428
232 630 253 720 17 75 17 75 87 130 88 70 236 223 286 297 115 170 145 284
202 780 12 101 20 194 18 208 -3 23 -9 19 -113 -61 -342 -266 -538 -472 -630
-661 -16 -34 -32 -62 -35 -62 -3 0 -25 36 -50 81 -54 98 -165 220 -231 254
-91 46 -168 27 -220 -54 -59 -93 -74 -167 -74 -362 1 -143 5 -195 23 -285 28
-133 73 -256 133 -360 50 -89 177 -229 263 -290 30 -22 56 -44 56 -50 0 -5
-28 -80 -61 -165 -34 -85 -63 -165 -66 -178 -9 -38 -20 -34 -27 10 -13 81 -80
225 -176 378 -26 41 -62 99 -80 128 -17 28 -35 52 -40 52 -9 0 -93 -314 -114
-429 -21 -108 -21 -275 0 -354 27 -104 115 -252 183 -310 l30 -25 -101 -211
c-56 -116 -103 -209 -104 -208 -2 1 -14 54 -28 117 -44 200 -140 505 -160 505
-16 0 -121 -298 -187 -529 -37 -132 -49 -165 -49 -137 0 21 -74 114 -138 173
-113 104 -325 231 -522 313 -36 15 -68 30 -72 33 -4 4 17 46 47 95 30 48 55
91 55 96 0 5 44 12 98 16 215 15 332 64 462 195 121 120 186 249 211 420 29
198 -74 398 -237 460 -52 19 -72 22 -171 17 l-113 -4 0 60 c0 79 -26 133 -93
193 -126 113 -380 194 -774 245 l-92 12 6 86 c11 171 -49 293 -329 663 -185
244 -233 356 -209 485 19 105 74 194 151 245 30 20 28 20 -30 4z m-2680 -1123
c-1 -48 -46 -317 -100 -602 -98 -506 -110 -565 -120 -575 -20 -20 -12 31 75
484 50 253 112 597 120 658 4 28 11 52 16 52 5 0 9 -8 9 -17z m5168 -20 c6
-21 29 -146 52 -278 22 -132 61 -341 86 -465 50 -254 73 -401 66 -414 -10 -18
-21 27 -67 274 -25 135 -59 315 -75 400 -16 85 -40 227 -55 314 -14 88 -28
170 -31 183 -10 39 12 26 24 -14z m-3726 -1223 c15 -176 82 -445 158 -635 75
-189 206 -407 322 -538 33 -37 59 -70 57 -72 -2 -2 -51 36 -109 85 -169 141
-276 283 -385 505 -104 212 -189 487 -214 695 -7 52 -14 105 -16 117 -5 20 4
17 87 -27 l93 -49 7 -81z m2823 120 c96 -47 111 -163 39 -301 -52 -99 -138
-189 -211 -222 -57 -26 -173 -50 -173 -37 0 4 7 29 15 56 8 27 31 122 50 211
19 89 39 173 44 186 24 62 107 126 165 127 16 0 48 -9 71 -20z m-431 -37 c-9
-34 -17 -40 -119 -92 -78 -39 -231 -85 -263 -79 -8 2 34 25 94 52 60 26 147
70 194 96 47 27 88 49 93 49 4 1 4 -11 1 -26z m-996 -385 c3 -16 -7 -18 -97
-18 -110 0 -122 -10 -52 -43 21 -9 57 -35 81 -57 23 -22 48 -36 54 -33 6 4 5
-1 -3 -10 -7 -9 -17 -17 -20 -17 -4 0 -35 18 -69 40 -33 22 -65 40 -70 40 -13
0 -32 72 -25 98 5 22 9 23 102 20 82 -3 96 -6 99 -20z m-162 -214 c59 -38 87
-85 92 -152 5 -81 -26 -137 -97 -174 -66 -35 -119 -36 -188 -4 -133 63 -141
241 -13 327 59 40 147 41 206 3z m-1121 -572 c-2 -2 -7 -4 -12 -4 -32 -1 -273
-114 -340 -159 -113 -76 -183 -176 -183 -262 0 -49 45 -151 62 -140 6 3 8 1 4
-5 -10 -17 103 -110 188 -153 285 -144 761 -229 1288 -229 204 0 264 4 528 31
208 22 525 90 709 153 85 30 103 27 40 -4 -182 -94 -546 -182 -870 -211 -71
-7 -127 -15 -125 -18 6 -9 -441 -2 -609 9 -82 6 -196 18 -253 26 -56 8 -119
13 -140 10 -27 -4 -30 -3 -12 2 22 7 19 9 -25 16 -84 12 -252 56 -378 97 -201
67 -346 151 -432 251 -20 24 -41 43 -47 43 -6 0 -13 7 -15 15 -4 13 -3 13 6 0
6 -8 11 -11 11 -6 0 5 -7 18 -16 27 -25 27 -22 132 4 191 55 124 164 200 527
368 l40 18 27 -31 c14 -18 25 -33 23 -35z m-1047 -127 c33 -121 55 -218 72
-310 6 -33 14 -68 16 -77 7 -24 -13 -23 -26 2 -11 21 -93 384 -105 465 -11 81
10 41 43 -80z m4197 -77 c4 -43 11 -76 15 -73 9 6 20 -30 20 -65 -1 -26 -13
-43 -72 -98 l-35 -33 18 88 c10 48 19 104 20 123 0 19 3 73 6 120 5 70 8 79
14 51 4 -19 10 -70 14 -113z m-4241 0 c3 -29 2 -48 -4 -48 -6 0 -10 -10 -9
-22 0 -22 1 -22 9 -3 7 16 9 13 8 -15 0 -19 8 -64 17 -99 9 -35 14 -65 12 -67
-2 -2 -24 18 -50 44 l-48 48 11 93 c6 50 16 112 22 137 l13 46 6 -33 c4 -19 9
-55 13 -81z m1203 79 c-2 -7 -9 -13 -15 -13 -7 -1 -16 -2 -20 -3 -18 -3 -95
-86 -108 -118 -13 -30 -13 -38 2 -68 19 -41 92 -98 116 -92 10 3 15 0 12 -8
-17 -43 178 -116 429 -160 350 -62 875 -52 1161 21 32 8 60 13 62 11 14 -14
-249 -85 -441 -118 -112 -20 -164 -23 -375 -23 -292 0 -477 23 -695 86 -216
63 -378 206 -351 313 9 37 74 103 140 145 32 20 54 40 51 48 -3 10 0 10 16 2
11 -6 18 -17 16 -23z m-676 -671 c253 -190 782 -325 1401 -357 714 -38 1494
131 1796 388 49 42 54 44 34 16 -70 -99 -302 -222 -570 -302 -434 -129 -1111
-173 -1630 -105 -250 32 -578 109 -742 174 -175 69 -326 169 -391 259 -51 70
-51 87 0 24 21 -28 67 -71 102 -97z"/>
<path d="M5109 4345 c-62 -34 -76 -101 -31 -154 23 -28 35 -34 71 -35 37 -1
47 4 77 36 24 27 34 47 34 70 -1 31 -1 32 -16 13 -13 -18 -14 -17 -8 12 6 28
3 34 -27 52 -40 24 -64 26 -100 6z"/>
<path d="M4394 7295 c-7 -18 89 -268 100 -258 4 4 4 0 1 -8 -3 -9 37 -122 91
-255 53 -131 110 -273 126 -314 34 -85 49 -106 73 -96 21 8 25 -4 -80 251 -47
116 -122 305 -166 420 -44 116 -86 225 -94 243 -15 33 -42 43 -51 17z"/>
<path d="M5853 7263 c-8 -21 -76 -216 -149 -433 -123 -363 -133 -396 -117
-408 11 -7 20 -9 26 -3 6 6 50 128 99 273 50 145 114 335 144 422 30 88 52
166 50 173 -10 25 -37 13 -53 -24z"/>
<path d="M4956 7245 c-128 -52 -187 -137 -194 -278 -8 -147 44 -250 267 -535
264 -337 330 -464 318 -611 -2 -36 -8 -74 -12 -83 -11 -28 46 -24 72 5 57 63
67 167 27 285 -34 103 -96 205 -222 364 -251 319 -298 393 -328 511 -32 122
12 264 101 328 67 48 60 51 -29 14z"/>
<path d="M3657 7076 c-6 -16 22 -60 132 -199 46 -58 89 -103 94 -100 6 3 7 1
3 -5 -9 -15 38 -67 52 -58 21 13 13 45 -21 83 -18 21 -48 59 -67 85 -18 26
-37 45 -43 41 -6 -3 -7 -1 -3 5 9 15 -64 103 -77 95 -6 -3 -7 -1 -4 4 7 11
-36 63 -51 63 -6 0 -12 -6 -15 -14z"/>
<path d="M4086 7071 c-9 -14 1 -35 84 -176 43 -71 85 -145 94 -163 10 -19 21
-30 28 -26 7 4 8 3 4 -5 -10 -15 134 -272 147 -264 6 3 7 1 3 -5 -7 -12 65
-145 85 -157 5 -4 16 -1 24 5 17 14 1 55 -17 44 -7 -4 -8 -3 -4 4 4 6 -10 42
-30 79 -107 200 -157 282 -167 276 -6 -3 -7 -1 -3 6 4 6 -7 37 -25 69 -105
189 -163 281 -172 275 -6 -3 -7 -1 -3 6 9 14 -11 41 -30 41 -7 0 -15 -4 -18
-9z"/>
<path d="M6178 7053 c-8 -10 -92 -171 -186 -358 -93 -187 -177 -353 -186 -370
-18 -34 -23 -81 -6 -55 8 13 10 12 10 -3 0 -10 4 -16 9 -13 15 10 52 78 39 71
-7 -4 -6 -1 3 7 22 19 80 139 72 151 -3 5 -2 7 3 4 13 -7 267 500 258 515 -4
6 -3 8 3 5 5 -4 16 4 23 17 22 41 -12 64 -42 29z"/>
<path d="M6594 7017 c-47 -51 -85 -107 -78 -118 4 -7 3 -9 -3 -6 -12 7 -133
-148 -133 -169 0 -42 68 1 101 63 8 15 26 40 42 56 19 21 26 36 22 51 -4 13
-3 16 2 9 10 -13 95 89 97 116 2 24 -27 22 -50 -2z"/>
<path d="M3284 6919 c-4 -7 14 -31 42 -57 27 -25 79 -75 116 -110 41 -38 72
-61 79 -56 7 4 9 3 6 -3 -10 -17 249 -257 266 -246 6 3 7 2 4 -4 -4 -5 8 -23
25 -39 17 -16 28 -23 24 -17 -4 7 24 -19 61 -57 68 -69 96 -84 107 -55 5 14
-69 85 -437 421 -67 61 -151 139 -187 172 -62 60 -91 74 -106 51z"/>
<path d="M6825 6735 c-99 -96 -179 -179 -177 -185 1 -5 -5 -10 -13 -10 -11 0
-14 -7 -11 -25 3 -13 0 -28 -6 -31 -7 -5 -8 -2 -3 6 6 9 4 11 -6 5 -12 -8 -12
-6 0 8 8 10 9 17 3 17 -19 0 -25 -22 -9 -37 13 -14 20 -11 61 27 25 23 43 46
41 50 -3 5 0 12 6 16 8 5 9 3 4 -7 -4 -8 35 27 87 76 52 50 98 98 102 108 4 9
13 17 20 17 18 0 128 119 121 130 -16 25 -53 -3 -220 -165z"/>
<path d="M3966 6703 c-12 -13 -5 -41 17 -67 17 -19 26 -23 34 -15 8 8 13 7 18
-2 5 -7 4 -10 -3 -5 -6 3 -14 2 -17 -4 -9 -15 14 -41 29 -33 6 3 8 3 4 -2 -10
-11 72 -116 85 -108 5 3 7 2 4 -4 -8 -12 20 -53 36 -53 45 1 37 20 -63 146
-101 128 -132 159 -144 147z"/>
<path d="M3087 6653 c-19 -18 0 -44 75 -97 44 -33 87 -59 95 -59 7 0 11 -2 8
-5 -8 -8 215 -163 225 -157 6 4 9 1 8 -6 -3 -10 174 -142 221 -165 18 -9 33
17 19 34 -6 7 -61 49 -122 92 -292 209 -424 306 -460 336 -39 34 -56 40 -69
27z"/>
<path d="M6281 6598 c-150 -185 -173 -219 -160 -234 8 -10 9 -18 2 -25 -8 -8
-13 -7 -18 2 -6 8 -4 10 5 4 8 -5 11 -3 9 4 -7 20 -23 18 -27 -3 -7 -32 19
-36 47 -6 44 46 60 68 54 74 -4 3 -1 6 6 6 7 0 9 5 5 12 -4 6 -3 8 3 5 10 -6
153 173 153 191 0 5 -6 15 -14 21 -11 10 -24 0 -65 -51z"/>
<path d="M7179 6625 c-303 -238 -326 -259 -276 -248 18 4 19 3 7 -6 -8 -6 -11
-11 -7 -11 19 0 97 62 91 72 -4 7 -2 8 4 4 6 -3 48 23 94 59 167 133 170 136
157 151 -16 20 -21 18 -70 -21z"/>
<path d="M2974 6266 c-6 -16 11 -46 26 -46 5 0 51 -20 104 -45 53 -25 98 -45
100 -45 2 0 56 -25 120 -55 201 -95 295 -133 319 -128 18 4 19 3 7 -6 -18 -13
-1 -15 18 -2 21 13 -23 40 -188 116 -80 37 -217 101 -305 142 -191 89 -193 90
-201 69z"/>
<path d="M4939 6237 c-20 -12 -46 -45 -62 -77 -25 -49 -28 -62 -23 -118 7 -86
46 -154 158 -283 50 -57 102 -126 115 -154 25 -54 31 -132 12 -167 -6 -11 -8
-22 -5 -25 11 -12 58 36 82 85 21 42 25 60 20 94 -10 61 -57 143 -130 225
-121 136 -156 205 -156 306 0 44 6 71 20 95 31 51 23 56 -31 19z"/>
<path d="M2937 5894 c-19 -19 -3 -35 51 -49 31 -9 102 -29 157 -45 212 -61
451 -123 479 -124 36 -1 45 19 16 34 -21 11 -618 178 -670 187 -14 3 -28 1
-33 -3z"/>
<path d="M7280 5879 c-36 -10 -105 -30 -155 -43 -49 -14 -124 -34 -165 -46
-41 -12 -126 -34 -188 -50 -115 -28 -140 -39 -128 -59 12 -19 43 -13 311 60
143 39 295 80 338 91 59 16 77 24 77 38 0 27 -19 29 -90 9z"/>
<path d="M4710 5659 c-405 -34 -721 -121 -804 -219 -79 -94 9 -179 282 -274
315 -109 574 -149 977 -150 258 -1 292 1 441 26 453 76 824 221 824 323 0 133
-286 237 -800 290 -113 11 -146 12 -152 2 -11 -18 -10 -27 5 -27 6 -1 -3 -7
-20 -15 -29 -12 -45 -35 -25 -35 35 0 343 -64 386 -81 96 -35 127 -97 78 -153
-78 -86 -385 -146 -747 -146 -361 0 -654 55 -745 140 -26 24 -31 36 -28 67 6
72 100 111 376 157 106 17 194 35 195 40 3 15 -51 26 -57 13 -2 -7 -5 -4 -5 6
-1 12 7 17 25 17 22 0 25 2 14 15 -14 17 -62 18 -220 4z m960 -60 c-12 -8 -9
-9 13 -5 45 10 266 -33 296 -57 14 -12 26 -15 80 -21 58 -7 144 -57 165 -97
19 -36 19 -36 -4 -84 -51 -106 -266 -199 -590 -254 -407 -70 -914 -40 -1256
74 -274 92 -384 225 -255 310 38 26 173 76 200 74 11 0 12 -2 3 -6 -6 -2 -10
-9 -7 -14 4 -5 -2 -6 -12 -2 -10 3 -15 2 -11 -2 5 -5 -14 -21 -41 -36 -79 -45
-96 -81 -66 -140 28 -52 166 -127 315 -170 91 -27 291 -57 466 -70 260 -20
617 11 844 72 182 49 340 155 325 217 -21 88 -166 152 -420 188 -27 3 -56 11
-62 16 -7 6 -24 8 -38 6 -14 -3 -25 -1 -25 3 0 5 21 9 48 9 36 0 43 -3 32 -11z
m-970 -414 c281 -41 588 -39 960 4 85 10 157 17 158 15 8 -6 -109 -35 -218
-55 -331 -58 -794 -40 -1060 41 l-65 20 65 -6 c36 -3 108 -12 160 -19z"/>
<path d="M7180 5539 c-107 -15 -198 -28 -202 -28 -13 -1 -9 -39 5 -44 7 -3 33
-1 58 4 34 6 351 49 366 49 13 0 -1 39 -14 42 -10 2 -106 -8 -213 -23z"/>
<path d="M2900 5540 c0 -11 1 -20 3 -20 1 0 83 -12 182 -25 381 -54 468 -64
476 -59 15 9 10 32 -8 39 -24 9 -568 84 -615 85 -31 0 -38 -4 -38 -20z"/>
<path d="M4875 5523 c-160 -20 -290 -49 -343 -75 -121 -60 -8 -127 293 -175
167 -26 529 -23 689 6 271 49 364 104 273 160 -52 32 -157 55 -399 86 -46 6
-48 5 -48 -18 0 -13 -9 -36 -20 -49 -21 -28 -18 -38 14 -38 30 0 66 -27 66
-49 0 -78 -418 -95 -486 -20 -15 17 -14 20 9 43 15 15 42 27 70 31 50 8 49 4
31 93 -5 25 2 25 -149 5z"/>
<path d="M1419 5444 c-85 -26 -138 -116 -124 -208 29 -178 218 -350 489 -442
145 -50 386 -90 386 -65 0 13 -174 352 -213 416 -106 172 -213 260 -364 299
-73 19 -113 19 -174 0z"/>
<path d="M8705 5447 c-121 -31 -235 -120 -328 -258 -56 -84 -244 -456 -234
-465 10 -11 154 13 282 46 202 52 339 124 451 235 96 95 129 163 129 266 0 67
-3 80 -27 111 -15 19 -43 43 -62 52 -47 22 -149 29 -211 13z"/>
<path d="M2940 5225 c-9 -11 -10 -19 -3 -26 15 -15 612 -34 625 -21 6 6 8 17
5 25 -4 12 -55 16 -279 21 -150 4 -287 9 -304 12 -21 4 -35 0 -44 -11z"/>
<path d="M3158 4920 c-113 -4 -211 -11 -217 -14 -16 -10 -14 -33 3 -39 8 -3
110 -2 228 3 117 5 249 10 293 11 90 2 125 11 125 34 0 17 -58 18 -432 5z"/>
<path d="M3520 4689 c-25 -5 -106 -21 -180 -35 -74 -14 -143 -28 -152 -31 -20
-5 -24 -39 -6 -45 6 -2 112 16 235 40 194 39 223 47 223 63 0 15 -7 19 -37 18
-21 -1 -58 -5 -83 -10z"/>
<path d="M3295 4435 c-22 -8 -89 -28 -150 -45 -60 -16 -113 -34 -118 -39 -13
-13 1 -31 24 -31 35 0 209 52 203 61 -3 5 1 6 8 4 24 -10 93 20 93 40 0 25
-12 27 -60 10z"/>
<path d="M3565 4250 c-124 -61 -212 -102 -302 -140 -52 -22 -67 -45 -38 -56 8
-4 23 -3 33 1 9 5 22 9 28 10 37 9 449 216 449 227 0 28 -55 15 -170 -42z"/>
<path d="M3723 4068 c-46 -29 -140 -89 -210 -132 -71 -44 -130 -81 -132 -83
-2 -1 2 -10 9 -18 11 -13 10 -18 -6 -30 -48 -37 3 -8 105 58 118 76 209 134
304 193 32 20 56 41 54 48 -8 25 -46 14 -124 -36z"/>
<path d="M6495 4099 c-4 -6 2 -20 14 -33 29 -31 169 -109 181 -101 6 4 9 1 8
-5 -2 -7 11 -21 27 -31 54 -33 85 -50 85 -45 0 3 11 -5 24 -18 14 -12 41 -31
60 -41 29 -16 38 -17 48 -6 18 18 -24 52 -192 153 -74 45 -155 95 -179 110
-48 30 -66 34 -76 17z"/>
<path d="M8337 3075 c-15 -14 -46 -28 -68 -31 -33 -6 -39 -10 -32 -23 4 -9 8
-44 8 -78 l-1 -63 46 0 c25 0 55 -7 66 -15 30 -23 43 -18 50 20 3 19 20 48 37
65 17 16 29 31 26 33 -2 2 -18 13 -36 26 -18 12 -38 37 -44 56 -7 19 -15 35
-19 35 -3 0 -18 -12 -33 -25z"/>
<path d="M1936 3050 c-15 -23 -38 -45 -52 -50 l-25 -10 35 -41 c19 -23 38 -54
41 -70 7 -33 13 -35 41 -14 11 8 41 14 72 15 51 0 53 1 45 23 -9 27 -9 84 2
115 6 19 4 22 -19 22 -31 0 -86 26 -86 40 0 23 -29 7 -54 -30z"/>
<path d="M7865 2686 c-11 -6 -44 -26 -73 -45 -63 -40 -84 -38 -161 13 -53 36
-71 43 -71 29 0 -5 10 -46 22 -92 l22 -83 -67 -60 c-37 -33 -67 -64 -67 -69 0
-5 26 -9 59 -9 110 0 113 -2 152 -93 19 -44 39 -82 45 -84 6 -2 26 34 44 81
36 93 39 96 130 96 91 0 93 10 22 77 -70 66 -71 72 -47 183 7 36 13 65 12 66
-1 1 -11 -3 -22 -10z"/>
<path d="M2521 2608 c10 -46 19 -87 19 -91 0 -4 -33 -39 -72 -77 l-73 -70 87
0 c65 0 90 -4 102 -16 9 -8 16 -20 16 -25 0 -15 61 -139 69 -139 4 0 24 38 45
84 41 91 47 95 146 96 66 1 66 12 -2 78 l-62 60 20 91 c24 106 26 105 -73 45
-31 -19 -67 -34 -78 -34 -12 0 -50 18 -84 40 -34 22 -66 40 -70 40 -5 0 0 -37
10 -82z"/>
<path d="M4065 2510 c-24 -24 -43 -32 -88 -38 l-57 -7 26 -38 c26 -39 26 -39
11 -99 l-15 -60 31 8 c54 13 93 8 122 -14 38 -30 45 -28 45 16 0 45 11 61 63
92 21 12 35 25 32 28 -3 4 -27 18 -53 32 -38 20 -49 33 -60 68 -8 23 -17 42
-21 42 -3 0 -20 -14 -36 -30z"/>
<path d="M6190 2502 c0 -38 -21 -65 -69 -87 -23 -10 -41 -21 -41 -24 0 -4 13
-15 30 -24 50 -30 60 -46 60 -93 0 -24 3 -44 7 -44 3 0 21 11 39 25 35 26 69
31 122 16 38 -11 38 -9 15 61 -16 50 -16 52 5 89 12 21 22 40 22 43 0 4 -24 6
-53 6 -46 0 -57 4 -82 30 -36 38 -55 38 -55 2z"/>
<path d="M7155 2408 c-38 -28 -121 -85 -182 -125 -62 -41 -113 -76 -113 -80 0
-4 7 -14 16 -24 8 -9 73 -102 144 -205 219 -322 242 -354 252 -354 12 0 228
146 312 211 98 77 98 76 42 143 l-48 56 -37 -28 c-20 -15 -71 -54 -114 -86
-43 -32 -79 -57 -80 -55 -2 2 -20 27 -40 56 l-36 52 95 67 c52 37 97 70 99 74
2 3 -17 30 -43 59 l-47 53 -88 -66 c-48 -36 -89 -66 -90 -66 -5 0 -67 87 -67
93 0 3 43 38 95 77 52 39 97 75 100 80 6 9 -82 120 -94 120 -3 0 -37 -24 -76
-52z"/>
<path d="M4534 2362 c-67 -108 -76 -131 -77 -191 0 -98 51 -167 132 -178 48
-6 99 28 129 87 27 55 28 111 1 169 -20 45 -124 181 -137 181 -4 -1 -26 -31
-48 -68z"/>
<path d="M5628 2372 c-58 -91 -70 -122 -75 -187 -8 -105 53 -188 137 -188 79
0 140 71 140 163 0 47 -6 66 -35 114 -36 60 -86 122 -115 143 -13 9 -21 2 -52
-45z"/>
<path d="M5094 2401 c-100 -24 -174 -107 -182 -204 -9 -114 85 -216 206 -225
81 -6 136 12 189 60 77 72 97 163 54 252 -47 96 -155 143 -267 117z"/>
<path d="M3007 2012 l-168 -307 27 -22 c47 -38 226 -123 296 -140 77 -20 144
-11 225 29 63 32 146 125 174 195 33 86 32 199 -4 274 -40 82 -123 157 -243
217 -54 27 -108 52 -119 56 -18 5 -40 -31 -188 -302z m323 22 c143 -130 -8
-374 -185 -299 -47 19 -51 36 -23 82 14 21 50 86 82 146 32 60 63 107 72 107
7 0 32 -16 54 -36z"/>
<path d="M6685 2129 c-67 -36 -259 -127 -317 -148 l-28 -10 44 -93 c143 -303
239 -502 257 -532 l20 -34 89 41 c50 22 90 45 90 49 0 5 -27 62 -60 128 -33
66 -60 122 -60 124 0 2 49 32 110 65 60 34 112 65 115 70 6 11 -56 121 -69
121 -6 0 -53 -25 -107 -55 -53 -30 -101 -55 -106 -55 -9 0 -53 82 -53 99 0 4
52 36 115 71 63 34 115 65 115 68 1 16 -66 132 -75 131 -5 -1 -41 -19 -80 -40z"/>
<path d="M3780 2031 c0 -16 -159 -475 -199 -574 -17 -43 -31 -84 -31 -92 0
-16 59 -39 253 -99 214 -66 192 -66 211 7 10 34 18 68 19 76 1 10 -33 26 -108
50 -124 40 -125 43 -88 128 l18 42 114 -30 c63 -16 117 -26 121 -22 8 9 33
123 28 127 -1 1 -48 15 -103 31 -55 16 -104 32 -109 36 -4 4 -1 30 9 58 20 60
19 60 147 26 51 -14 98 -25 104 -25 9 0 59 140 51 145 -1 1 -92 28 -202 60
-110 31 -208 59 -217 62 -10 3 -18 0 -18 -6z"/>
<path d="M6130 1921 c-30 -10 -125 -35 -210 -57 -85 -21 -157 -40 -159 -41 -6
-3 153 -700 163 -710 2 -2 44 5 95 17 50 11 93 20 96 20 10 0 5 34 -26 163
-24 105 -28 132 -17 139 15 9 200 68 216 68 6 0 13 4 17 9 6 11 -24 141 -34
141 -3 0 -53 -13 -111 -30 -58 -16 -112 -30 -121 -30 -12 0 -21 15 -29 51 -7
27 -10 52 -8 54 2 3 60 21 129 41 68 19 126 37 128 39 2 2 -4 36 -14 75 -20
80 -21 80 -115 51z"/>
<path d="M4740 1789 c-66 -13 -143 -54 -188 -101 -161 -165 -133 -456 56 -577
115 -74 248 -75 351 -4 86 60 86 63 12 137 l-64 65 -31 -24 c-48 -37 -103 -42
-146 -13 -43 29 -80 99 -80 153 0 50 35 122 73 149 45 33 115 29 164 -11 l39
-31 73 60 73 60 -43 45 c-52 53 -95 76 -167 92 -59 12 -59 12 -122 0z"/>
<path d="M5330 1758 c-5 -13 -35 -93 -66 -178 -31 -85 -86 -238 -123 -340 -38
-102 -67 -186 -67 -186 1 -1 44 -4 97 -7 l96 -5 12 38 c6 22 15 41 19 43 4 3
54 6 112 8 l105 4 17 -34 c9 -19 21 -38 25 -42 8 -8 191 16 201 25 2 3 -164
366 -288 629 l-31 67 -50 0 c-42 0 -51 -3 -59 -22z"/>
</g>
</svg>
